<mxfile host="drawio-plugin" modified="2023-10-07T10:04:29.559Z" agent="5.0 (Windows NT 10.0; Win64; x64) AppleWebKit/537.36 (KHTML, like Gecko) Chrome/111.0.0.0 Safari/537.36" version="20.5.3" etag="oO1c-14ebgGIVmK8V_PY" type="embed"><diagram id="MvpGnKpsO48YWeKmwoCg" name="Page-1"><mxGraphModel dx="2225" dy="1786" grid="1" gridSize="10" guides="1" tooltips="1" connect="1" arrows="1" fold="1" page="0" pageScale="1" pageWidth="850" pageHeight="1100" background="none" math="0" shadow="0"><root><mxCell id="0"/><mxCell id="1" parent="0"/><mxCell id="node3" value="&lt;p style=&quot;margin:0px;margin-top:4px;text-align:center;&quot;&gt;&lt;b&gt;board&lt;/b&gt;&lt;/p&gt;&lt;hr size=&quot;1&quot;/&gt;&lt;p style=&quot;margin:0 0 0 4px;line-height:1.6;&quot;&gt; created_date: datetime(6)&lt;br/&gt; last_modified_date: datetime(6)&lt;br/&gt; content: varchar(255)&lt;br/&gt; title: varchar(255)&lt;br/&gt; stock_code: varchar(255)&lt;br/&gt; user_id: bigint&lt;/p&gt;&lt;hr size=&quot;1&quot;/&gt;&lt;p style=&quot;margin:0 0 0 4px;line-height:1.6;&quot;&gt; board_id: bigint&lt;/p&gt;" style="verticalAlign=top;align=left;overflow=fill;fontSize=14;fontFamily=Helvetica;html=1;rounded=0;shadow=0;comic=0;labelBackgroundColor=none;strokeWidth=1;" parent="1" vertex="1"><mxGeometry x="442" y="80" width="237" height="211" as="geometry"/></mxCell><mxCell id="node1" value="&lt;p style=&quot;margin:0px;margin-top:4px;text-align:center;&quot;&gt;&lt;b&gt;comment&lt;/b&gt;&lt;/p&gt;&lt;hr size=&quot;1&quot;/&gt;&lt;p style=&quot;margin:0 0 0 4px;line-height:1.6;&quot;&gt; created_date: datetime(6)&lt;br/&gt; last_modified_date: datetime(6)&lt;br/&gt; content: varchar(255)&lt;br/&gt; board_id: bigint&lt;br/&gt; user_id: bigint&lt;/p&gt;&lt;hr size=&quot;1&quot;/&gt;&lt;p style=&quot;margin:0 0 0 4px;line-height:1.6;&quot;&gt; id: bigint&lt;/p&gt;" style="verticalAlign=top;align=left;overflow=fill;fontSize=14;fontFamily=Helvetica;html=1;rounded=0;shadow=0;comic=0;labelBackgroundColor=none;strokeWidth=1;" parent="1" vertex="1"><mxGeometry x="442" y="330" width="237" height="190" as="geometry"/></mxCell><mxCell id="node8" value="&lt;p style=&quot;margin:0px;margin-top:4px;text-align:center;&quot;&gt;&lt;b&gt;search_log&lt;/b&gt;&lt;/p&gt;&lt;hr size=&quot;1&quot;/&gt;&lt;p style=&quot;margin:0 0 0 4px;line-height:1.6;&quot;&gt; created_date: datetime(6)&lt;br/&gt; last_modified_date: datetime(6)&lt;br/&gt; stock_id: varchar(255)&lt;/p&gt;&lt;hr size=&quot;1&quot;/&gt;&lt;p style=&quot;margin:0 0 0 4px;line-height:1.6;&quot;&gt; search_date: date&lt;br/&gt; user_id: bigint&lt;/p&gt;" style="verticalAlign=top;align=left;overflow=fill;fontSize=14;fontFamily=Helvetica;html=1;rounded=0;shadow=0;comic=0;labelBackgroundColor=none;strokeWidth=1;" parent="1" vertex="1"><mxGeometry x="162" y="581" width="237" height="169" as="geometry"/></mxCell><mxCell id="node6" value="&lt;p style=&quot;margin:0px;margin-top:4px;text-align:center;&quot;&gt;&lt;b&gt;stock&lt;/b&gt;&lt;/p&gt;&lt;hr size=&quot;1&quot;/&gt;&lt;p style=&quot;margin:0 0 0 4px;line-height:1.6;&quot;&gt; created_date: datetime(6)&lt;br/&gt; last_modified_date: datetime(6)&lt;br/&gt; name: varchar(255)&lt;/p&gt;&lt;hr size=&quot;1&quot;/&gt;&lt;p style=&quot;margin:0 0 0 4px;line-height:1.6;&quot;&gt; stock_code: varchar(255)&lt;/p&gt;" style="verticalAlign=top;align=left;overflow=fill;fontSize=14;fontFamily=Helvetica;html=1;rounded=0;shadow=0;comic=0;labelBackgroundColor=none;strokeWidth=1;" parent="1" vertex="1"><mxGeometry x="162" y="123" width="237" height="147" as="geometry"/></mxCell><mxCell id="node2" value="&lt;p style=&quot;margin:0px;margin-top:4px;text-align:center;&quot;&gt;&lt;b&gt;stock_finance&lt;/b&gt;&lt;/p&gt;&lt;hr size=&quot;1&quot;/&gt;&lt;p style=&quot;margin:0 0 0 4px;line-height:1.6;&quot;&gt; created_date: datetime(6)&lt;br/&gt; last_modified_date: datetime(6)&lt;br/&gt; bps: int&lt;br/&gt; eps: int&lt;/p&gt;&lt;hr size=&quot;1&quot;/&gt;&lt;p style=&quot;margin:0 0 0 4px;line-height:1.6;&quot;&gt; original_date: date&lt;br/&gt; stock_code: varchar(255)&lt;/p&gt;" style="verticalAlign=top;align=left;overflow=fill;fontSize=14;fontFamily=Helvetica;html=1;rounded=0;shadow=0;comic=0;labelBackgroundColor=none;strokeWidth=1;" parent="1" vertex="1"><mxGeometry x="162" y="-140" width="237" height="190" as="geometry"/></mxCell><mxCell id="node0" value="&lt;p style=&quot;margin:0px;margin-top:4px;text-align:center;&quot;&gt;&lt;b&gt;stock_price&lt;/b&gt;&lt;/p&gt;&lt;hr size=&quot;1&quot;/&gt;&lt;p style=&quot;margin:0 0 0 4px;line-height:1.6;&quot;&gt; created_date: datetime(6)&lt;br/&gt; last_modified_date: datetime(6)&lt;br/&gt; close: bigint&lt;br/&gt; high: bigint&lt;br/&gt; low: bigint&lt;br/&gt; open: bigint&lt;br/&gt; volume: bigint&lt;/p&gt;&lt;hr size=&quot;1&quot;/&gt;&lt;p style=&quot;margin:0 0 0 4px;line-height:1.6;&quot;&gt; original_date: date&lt;br/&gt; stock_code: varchar(255)&lt;/p&gt;" style="verticalAlign=top;align=left;overflow=fill;fontSize=14;fontFamily=Helvetica;html=1;rounded=0;shadow=0;comic=0;labelBackgroundColor=none;strokeWidth=1;" parent="1" vertex="1"><mxGeometry x="-118" y="50" width="237" height="255" as="geometry"/></mxCell><mxCell id="node7" value="&lt;p style=&quot;margin:0px;margin-top:4px;text-align:center;&quot;&gt;&lt;b&gt;user&lt;/b&gt;&lt;/p&gt;&lt;hr size=&quot;1&quot;/&gt;&lt;p style=&quot;margin:0 0 0 4px;line-height:1.6;&quot;&gt; created_date: datetime(6)&lt;br/&gt; last_modified_date: datetime(6)&lt;br/&gt; email: varchar(255)&lt;br/&gt; nickname: varchar(255)&lt;br/&gt; password: varchar(255)&lt;/p&gt;&lt;hr size=&quot;1&quot;/&gt;&lt;p style=&quot;margin:0 0 0 4px;line-height:1.6;&quot;&gt; user_id: bigint&lt;/p&gt;" style="verticalAlign=top;align=left;overflow=fill;fontSize=14;fontFamily=Helvetica;html=1;rounded=0;shadow=0;comic=0;labelBackgroundColor=none;strokeWidth=1;" parent="1" vertex="1"><mxGeometry x="442" y="570" width="237" height="190" as="geometry"/></mxCell><mxCell id="node5" value="&lt;p style=&quot;margin:0px;margin-top:4px;text-align:center;&quot;&gt;&lt;b&gt;user_interest_group&lt;/b&gt;&lt;/p&gt;&lt;hr size=&quot;1&quot;/&gt;&lt;p style=&quot;margin:0 0 0 4px;line-height:1.6;&quot;&gt; created_date: datetime(6)&lt;br/&gt; last_modified_date: datetime(6)&lt;br/&gt; group_name: varchar(255)&lt;br/&gt; user_id: bigint&lt;/p&gt;&lt;hr size=&quot;1&quot;/&gt;&lt;p style=&quot;margin:0 0 0 4px;line-height:1.6;&quot;&gt; group_id: bigint&lt;/p&gt;" style="verticalAlign=top;align=left;overflow=fill;fontSize=14;fontFamily=Helvetica;html=1;rounded=0;shadow=0;comic=0;labelBackgroundColor=none;strokeWidth=1;" parent="1" vertex="1"><mxGeometry x="722" y="581" width="237" height="169" as="geometry"/></mxCell><mxCell id="node4" value="&lt;p style=&quot;margin:0px;margin-top:4px;text-align:center;&quot;&gt;&lt;b&gt;user_interest_stock&lt;/b&gt;&lt;/p&gt;&lt;hr size=&quot;1&quot;/&gt;&lt;p style=&quot;margin:0 0 0 4px;line-height:1.6;&quot;&gt; created_date: datetime(6)&lt;br/&gt; last_modified_date: datetime(6)&lt;br/&gt; group_id: bigint&lt;/p&gt;&lt;hr size=&quot;1&quot;/&gt;&lt;p style=&quot;margin:0 0 0 4px;line-height:1.6;&quot;&gt; user_interest_stock_id: bigint&lt;/p&gt;" style="verticalAlign=top;align=left;overflow=fill;fontSize=14;fontFamily=Helvetica;html=1;rounded=0;shadow=0;comic=0;labelBackgroundColor=none;strokeWidth=1;" parent="1" vertex="1"><mxGeometry x="722" y="400" width="237" height="140" as="geometry"/></mxCell><mxCell id="edge8" value="" style="html=1;rounded=1;edgeStyle=orthogonalEdgeStyle;dashed=0;startArrow=none;endArrow=block;endSize=12;strokeColor=#595959;exitX=0.000;exitY=0.500;exitDx=0;exitDy=0;entryX=1.000;entryY=0.500;entryDx=0;entryDy=0;" parent="1" source="node3" target="node6" edge="1"><mxGeometry width="50" height="50" relative="1" as="geometry"><Array as="points"/></mxGeometry></mxCell><mxCell id="label50" value="stock_code" style="edgeLabel;resizable=0;html=1;align=left;verticalAlign=top;strokeColor=default;" parent="edge8" vertex="1" connectable="0"><mxGeometry x="386" y="165" as="geometry"/></mxCell><mxCell id="edge2" value="" style="html=1;rounded=1;edgeStyle=orthogonalEdgeStyle;dashed=0;startArrow=none;endArrow=block;endSize=12;strokeColor=#595959;exitX=1.000;exitY=0.500;exitDx=0;exitDy=0;entryX=1.000;entryY=0.500;entryDx=0;entryDy=0;" parent="1" source="node3" target="node7" edge="1"><mxGeometry width="50" height="50" relative="1" as="geometry"><Array as="points"><mxPoint x="689" y="185"/><mxPoint x="689" y="665"/></Array></mxGeometry></mxCell><mxCell id="label14" value="user_id" style="edgeLabel;resizable=0;html=1;align=left;verticalAlign=top;strokeColor=default;" parent="edge2" vertex="1" connectable="0"><mxGeometry x="662" y="678" as="geometry"/></mxCell><mxCell id="edge5" value="" style="html=1;rounded=1;edgeStyle=orthogonalEdgeStyle;dashed=0;startArrow=none;endArrow=block;endSize=12;strokeColor=#595959;exitX=0.500;exitY=0.000;exitDx=0;exitDy=0;entryX=0.500;entryY=1.000;entryDx=0;entryDy=0;" parent="1" source="node1" target="node3" edge="1"><mxGeometry width="50" height="50" relative="1" as="geometry"><Array as="points"/></mxGeometry></mxCell><mxCell id="label32" value="board_id" style="edgeLabel;resizable=0;html=1;align=left;verticalAlign=top;strokeColor=default;" parent="edge5" vertex="1" connectable="0"><mxGeometry x="560" y="301" as="geometry"/></mxCell><mxCell id="edge9" value="" style="html=1;rounded=1;edgeStyle=orthogonalEdgeStyle;dashed=0;startArrow=none;endArrow=block;endSize=12;strokeColor=#595959;exitX=0.500;exitY=1.000;exitDx=0;exitDy=0;entryX=0.500;entryY=0.000;entryDx=0;entryDy=0;" parent="1" source="node1" target="node7" edge="1"><mxGeometry width="50" height="50" relative="1" as="geometry"><Array as="points"/></mxGeometry></mxCell><mxCell id="label56" value="user_id" style="edgeLabel;resizable=0;html=1;align=left;verticalAlign=top;strokeColor=default;" parent="edge9" vertex="1" connectable="0"><mxGeometry x="560" y="542" as="geometry"/></mxCell><mxCell id="edge7" value="" style="html=1;rounded=1;edgeStyle=orthogonalEdgeStyle;dashed=0;startArrow=none;endArrow=block;endSize=12;strokeColor=#595959;exitX=0.500;exitY=0.000;exitDx=0;exitDy=0;entryX=0.500;entryY=1.000;entryDx=0;entryDy=0;" parent="1" source="node8" target="node6" edge="1"><mxGeometry width="50" height="50" relative="1" as="geometry"><Array as="points"/></mxGeometry></mxCell><mxCell id="label44" value="stock_id:stock_code" style="edgeLabel;resizable=0;html=1;align=left;verticalAlign=top;strokeColor=default;" parent="edge7" vertex="1" connectable="0"><mxGeometry x="222" y="474" as="geometry"/></mxCell><mxCell id="edge0" value="" style="html=1;rounded=1;edgeStyle=orthogonalEdgeStyle;dashed=0;startArrow=none;endArrow=block;endSize=12;strokeColor=#595959;exitX=1.000;exitY=0.500;exitDx=0;exitDy=0;entryX=0.000;entryY=0.500;entryDx=0;entryDy=0;" parent="1" source="node8" target="node7" edge="1"><mxGeometry width="50" height="50" relative="1" as="geometry"><Array as="points"/></mxGeometry></mxCell><mxCell id="label2" value="user_id" style="edgeLabel;resizable=0;html=1;align=left;verticalAlign=top;strokeColor=default;" parent="edge0" vertex="1" connectable="0"><mxGeometry x="398" y="645" as="geometry"/></mxCell><mxCell id="edge1" value="" style="html=1;rounded=1;edgeStyle=orthogonalEdgeStyle;dashed=0;startArrow=none;endArrow=block;endSize=12;strokeColor=#595959;exitX=0.500;exitY=1.000;exitDx=0;exitDy=0;entryX=0.500;entryY=0.000;entryDx=0;entryDy=0;" parent="1" source="node2" target="node6" edge="1"><mxGeometry width="50" height="50" relative="1" as="geometry"><Array as="points"/></mxGeometry></mxCell><mxCell id="label8" value="stock_code" style="edgeLabel;resizable=0;html=1;align=left;verticalAlign=top;strokeColor=default;" parent="edge1" vertex="1" connectable="0"><mxGeometry x="247" y="61" as="geometry"/></mxCell><mxCell id="edge3" value="" style="html=1;rounded=1;edgeStyle=orthogonalEdgeStyle;dashed=0;startArrow=none;endArrow=block;endSize=12;strokeColor=#595959;exitX=1.000;exitY=0.500;exitDx=0;exitDy=0;entryX=0.000;entryY=0.500;entryDx=0;entryDy=0;" parent="1" source="node0" target="node6" edge="1"><mxGeometry width="50" height="50" relative="1" as="geometry"><Array as="points"/></mxGeometry></mxCell><mxCell id="label20" value="stock_code" style="edgeLabel;resizable=0;html=1;align=left;verticalAlign=top;strokeColor=default;" parent="edge3" vertex="1" connectable="0"><mxGeometry x="107" y="185" as="geometry"/></mxCell><mxCell id="edge4" value="" style="html=1;rounded=1;edgeStyle=orthogonalEdgeStyle;dashed=0;startArrow=none;endArrow=block;endSize=12;strokeColor=#595959;exitX=0.500;exitY=1.000;exitDx=0;exitDy=0;entryX=0.500;entryY=1.000;entryDx=0;entryDy=0;" parent="1" source="node5" target="node7" edge="1"><mxGeometry width="50" height="50" relative="1" as="geometry"><Array as="points"><mxPoint x="840" y="760"/><mxPoint x="560" y="760"/></Array></mxGeometry></mxCell><mxCell id="label26" value="user_id" style="edgeLabel;resizable=0;html=1;align=left;verticalAlign=top;strokeColor=default;" parent="edge4" vertex="1" connectable="0"><mxGeometry x="560" y="747" as="geometry"/></mxCell><mxCell id="edge6" value="" style="html=1;rounded=1;edgeStyle=orthogonalEdgeStyle;dashed=0;startArrow=none;endArrow=block;endSize=12;strokeColor=#595959;exitX=0.500;exitY=1.000;exitDx=0;exitDy=0;entryX=0.500;entryY=0.000;entryDx=0;entryDy=0;" parent="1" source="node4" target="node5" edge="1"><mxGeometry width="50" height="50" relative="1" as="geometry"><Array as="points"/></mxGeometry></mxCell><mxCell id="label38" value="group_id" style="edgeLabel;resizable=0;html=1;align=left;verticalAlign=top;strokeColor=default;" parent="edge6" vertex="1" connectable="0"><mxGeometry x="787" y="549" as="geometry"/></mxCell></root></mxGraphModel></diagram></mxfile>